<svg id="Layer_2" data-name="Layer 2" xmlns="http://www.w3.org/2000/svg" viewBox="0 0 782.8 136.3">
  <defs>
    <style>
      .cls-1 {
        fill: #fff;
      }

      .cls-2 {
        fill: #f8f1b6;
      }
    </style>
  </defs>
  <title>allen_ray_logo</title>
  <g>
    <g>
      <path class="cls-1" d="M486.6,505.4v7a5.6,5.6,0,0,1-1.7,4.1,5.4,5.4,0,0,1-4,1.7h-21a5.5,5.5,0,0,1-4.4-2.1,5.8,5.8,0,0,1-1.3-3.8v-1.8h5.5v.3a1.9,1.9,0,0,0,1.8,1.9h17.8a1.8,1.8,0,0,0,1.5-.7,2,2,0,0,0,.4-1.2v-4.3a1,1,0,0,0-.3-.7.9.9,0,0,0-.7-.3H459.2a5,5,0,0,1-5-5v-7a5.6,5.6,0,0,1,1.7-4.1,5.5,5.5,0,0,1,4-1.7h21a5.5,5.5,0,0,1,4,1.7,5.6,5.6,0,0,1,1.7,4.1v1.9h-5.5V495a1.8,1.8,0,0,0-.5-1.3,1.9,1.9,0,0,0-1.4-.5H461.5a1.9,1.9,0,0,0-1.4.5,1.8,1.8,0,0,0-.6,1.3v4.4a.9.9,0,0,0,.3.7,1,1,0,0,0,.7.3h20.9a5,5,0,0,1,5,5Z" transform="translate(-328.6 -381.8)"/>
      <path class="cls-1" d="M605.6,513.1H587.8l-2.2,5.1h-5.8l12.9-30.6h8.1l12.9,30.6h-5.7Zm-8.9-21.7-6.6,16.8h13.2Z" transform="translate(-328.6 -381.8)"/>
      <path class="cls-1" d="M706.8,487.5h5.9v25.1h19.5v5.5H706.8Z" transform="translate(-328.6 -381.8)"/>
      <path class="cls-1" d="M853.9,487.5a6.8,6.8,0,0,1,6.7,6.7v17.2a6.8,6.8,0,0,1-6.7,6.7H834a6.7,6.7,0,0,1-6.7-6.7V494.3a6.7,6.7,0,0,1,6.7-6.7Zm1.2,22.4V495.8a2.8,2.8,0,0,0-2.8-2.8H835.5a2.8,2.8,0,0,0-2.8,2.8v14.1a2.8,2.8,0,0,0,2.8,2.8h16.9a2.8,2.8,0,0,0,2.8-2.8Z" transform="translate(-328.6 -381.8)"/>
      <path class="cls-1" d="M985.8,518.2h-8.1L961.6,494v24.2h-5.9V487.5h8.5l15.7,23.5V487.5h5.9Z" transform="translate(-328.6 -381.8)"/>
    </g>
    <g>
      <path class="cls-1" d="M395.5,448.1H349.3l-5.8,13.1H328.6L362,381.8h20.9l33.4,79.3H401.4Zm-23-56.3-17.1,43.5h34.1Z" transform="translate(-328.6 -381.8)"/>
      <path class="cls-1" d="M441.2,381.8h15.4v65.1h50.5v14.3H441.2Z" transform="translate(-328.6 -381.8)"/>
      <path class="cls-1" d="M536.7,381.8h15.4v65.1h50.5v14.3H536.7Z" transform="translate(-328.6 -381.8)"/>
      <path class="cls-1" d="M702,394.9H647.9v19.4h44.7v14.4H647.9v19.5H702v13H632.3V381.8H702Z" transform="translate(-328.6 -381.8)"/>
      <path class="cls-1" d="M809.8,461.2H788.9l-41.8-62.7v62.7H731.7V381.8h22l40.7,61v-61h15.4Z" transform="translate(-328.6 -381.8)"/>
      <path class="cls-2" d="M898.1,461.2l-15.8-23.7H854.7v23.7H839.3V381.8h63.2a14.2,14.2,0,0,1,10.5,4.4,14.3,14.3,0,0,1,4.3,10.4v26.1a14.1,14.1,0,0,1-3.8,9.9,14.8,14.8,0,0,1-9.4,4.8l-4.9.5,15.5,23.3Zm-43.4-65.1v27.2h43.7a4.4,4.4,0,0,0,3.3-1.4,4.7,4.7,0,0,0,1.4-3.4V400.9a4.6,4.6,0,0,0-1.4-3.4,4.5,4.5,0,0,0-3.3-1.4Z" transform="translate(-328.6 -381.8)"/>
      <path class="cls-2" d="M1008.9,448.1H962.8l-5.8,13.1H942l33.4-79.3h20.9l33.4,79.3h-14.8Zm-23-56.3-17.1,43.5h34.1Z" transform="translate(-328.6 -381.8)"/>
      <path class="cls-2" d="M1095,381.8h16.4l-29.9,49.4v30h-15.4v-30l-29.9-49.4h16.3l21.2,35.9Z" transform="translate(-328.6 -381.8)"/>
    </g>
  </g>
</svg>